  0
SECTION
  2
HEADER
  9
$ACADVER
  1
AC1014
  9
$HANDSEED
  5
FFFF
  9
$MEASUREMENT
 70
     1
  0
ENDSEC
  0
SECTION
  2
TABLES
  0
TABLE
  2
VPORT
  5
8
330
0
100
AcDbSymbolTable
 70
     4
  0
VPORT
  5
2E
330
8
100
AcDbSymbolTableRecord
100
AcDbViewportTableRecord
  2
*ACTIVE
 70
     0
 10
0.0
 20
0.0
 11
1.0
 21
1.0
 12
210.0
 22
148.5
 13
0.0
 23
0.0
 14
10.0
 24
10.0
 15
10.0
 25
10.0
 16
0.0
 26
0.0
 36
1.0
 17
0.0
 27
0.0
 37
0.0
 40
341.0
 41
1.24
 42
50.0
 43
0.0
 44
0.0
 50
0.0
 51
0.0
 71
     0
 72
   100
 73
     1
 74
     3
 75
     0
 76
     0
 77
     0
 78
     0
  0
ENDTAB
  0
TABLE
  2
LTYPE
  5
5
330
0
100
AcDbSymbolTable
 70
     1
  0
LTYPE
  5
14
330
5
100
AcDbSymbolTableRecord
100
AcDbLinetypeTableRecord
  2
BYBLOCK
 70
     0
  3

 72
    65
 73
     0
 40
0.0
  0
LTYPE
  5
15
330
5
100
AcDbSymbolTableRecord
100
AcDbLinetypeTableRecord
  2
BYLAYER
 70
     0
  3

 72
    65
 73
     0
 40
0.0
  0
LTYPE
  5
16
330
5
100
AcDbSymbolTableRecord
100
AcDbLinetypeTableRecord
  2
CONTINUOUS
 70
     0
  3
Solid line
 72
    65
 73
     0
 40
0.0
  0
ENDTAB
  0
TABLE
  2
LAYER
  5
2
100
AcDbSymbolTable
 70
2
  0
LAYER
  5
50
100
AcDbSymbolTableRecord
100
AcDbLayerTableRecord
  2
0
 70
0
  6
CONTINUOUS
  0
LAYER
  5
51
100
AcDbSymbolTableRecord
100
AcDbLayerTableRecord
  2
Vektor
 70
0
  6
CONTINUOUS
  0
ENDTAB
  0
TABLE
  2
STYLE
  5
3
330
0
100
AcDbSymbolTable
 70
     1
  0
STYLE
  5
11
330
3
100
AcDbSymbolTableRecord
100
AcDbTextStyleTableRecord
  2
STANDARD
 70
     0
 40
0.0
 41
1.0
 50
0.0
 71
     0
 42
2.5
  3
txt
  4

  0
ENDTAB
  0
TABLE
  2
VIEW
  5
6
330
0
100
AcDbSymbolTable
 70
     0
  0
ENDTAB
  0
TABLE
  2
UCS
  5
7
330
0
100
AcDbSymbolTable
 70
     0
  0
ENDTAB
  0
TABLE
  2
APPID
  5
9
330
0
100
AcDbSymbolTable
 70
     2
  0
APPID
  5
12
330
9
100
AcDbSymbolTableRecord
100
AcDbRegAppTableRecord
  2
ACAD
 70
     0
  0
ENDTAB
  0
TABLE
  2
DIMSTYLE
  5
A
330
0
100
AcDbSymbolTable
 70
     1
  0
DIMSTYLE
105
27
330
A
100
AcDbSymbolTableRecord
100
AcDbDimStyleTableRecord
  2
ISO-25
 70
     0
  3

  4

  5

  6

  7

 40
1.0
 41
2.5
 42
0.625
 43
3.75
 44
1.25
 45
0.0
 46
0.0
 47
0.0
 48
0.0
140
2.5
141
2.5
142
0.0
143
0.03937007874016
144
1.0
145
0.0
146
1.0
147
0.625
 71
     0
 72
     0
 73
     0
 74
     0
 75
     0
 76
     0
 77
     1
 78
     8
170
     0
171
     3
172
     1
173
     0
174
     0
175
     0
176
     0
177
     0
178
     0
270
     2
271
     2
272
     2
273
     2
274
     3
340
11
275
     0
280
     0
281
     0
282
     0
283
     0
284
     8
285
     0
286
     0
287
     3
288
     0
  0
ENDTAB
  0
TABLE
  2
BLOCK_RECORD
  5
1
330
0
100
AcDbSymbolTable
 70
     1
  0
BLOCK_RECORD
  5
1F
330
1
100
AcDbSymbolTableRecord
100
AcDbBlockTableRecord
  2
*MODEL_SPACE
  0
BLOCK_RECORD
  5
1B
330
1
100
AcDbSymbolTableRecord
100
AcDbBlockTableRecord
  2
*PAPER_SPACE
  0
ENDTAB
  0
ENDSEC
  0
SECTION
  2
BLOCKS
  0
BLOCK
  5
20
330
1F
100
AcDbEntity
  8
0
100
AcDbBlockBegin
  2
*MODEL_SPACE
 70
     0
 10
0.0
 20
0.0
 30
0.0
  3
*MODEL_SPACE
  1

  0
ENDBLK
  5
21
330
1F
100
AcDbEntity
  8
0
100
AcDbBlockEnd
  0
BLOCK
  5
1C
330
1B
100
AcDbEntity
 67
     1
  8
0
100
AcDbBlockBegin
  2
*PAPER_SPACE
  1

  0
ENDBLK
  5
1D
330
1B
100
AcDbEntity
 67
     1
  8
0
100
AcDbBlockEnd
  0
ENDSEC
  0
SECTION
  2
ENTITIES
  0
LWPOLYLINE
  5
100
100
AcDbEntity
  8
Vektor
 62
1
100
AcDbPolyline
 90
3
 70
1
 10
2997.759244
 20
1119.468253
 30
0.0
 10
2.683907
 20
2.121415
 30
0.0
 10
2.619984
 20
2246.250246
 30
0.0
  0
SPLINE
  5
101
100
AcDbEntity
  8
Vektor
 62
7
100
AcDbSpline
 70
8
 71
3
 72
8
 73
4
 74
0
 40
0
 40
0
 40
0
 40
0
 40
1
 40
1
 40
1
 40
1
 10
498.908437
 20
1397.664900
 30
0.0
 10
401.956425
 20
1334.100975
 30
0.0
 10
337.916250
 20
1224.460125
 30
0.0
 10
337.916250
 20
1099.868025
 30
0.0
  0
SPLINE
  5
102
100
AcDbEntity
  8
Vektor
 62
7
100
AcDbSpline
 70
8
 71
3
 72
8
 73
4
 74
0
 40
0
 40
0
 40
0
 40
0
 40
1
 40
1
 40
1
 40
1
 10
337.916250
 20
1099.868025
 30
0.0
 10
337.916250
 20
903.347325
 30
0.0
 10
497.223697
 20
744.039900
 30
0.0
 10
693.744375
 20
744.039900
 30
0.0
  0
SPLINE
  5
103
100
AcDbEntity
  8
Vektor
 62
7
100
AcDbSpline
 70
8
 71
3
 72
8
 73
4
 74
0
 40
0
 40
0
 40
0
 40
0
 40
1
 40
1
 40
1
 40
1
 10
693.744375
 20
744.039900
 30
0.0
 10
890.265075
 20
744.039900
 30
0.0
 10
1049.572500
 20
903.347325
 30
0.0
 10
1049.572500
 20
1099.868025
 30
0.0
  0
SPLINE
  5
104
100
AcDbEntity
  8
Vektor
 62
7
100
AcDbSpline
 70
8
 71
3
 72
8
 73
4
 74
0
 40
0
 40
0
 40
0
 40
0
 40
1
 40
1
 40
1
 40
1
 10
1049.572500
 20
1099.868025
 30
0.0
 10
1049.572500
 20
1224.497550
 30
0.0
 10
985.487475
 20
1334.156475
 30
0.0
 10
888.486525
 20
1397.711775
 30
0.0
  0
LWPOLYLINE
  5
105
100
AcDbEntity
  8
Vektor
 62
7
100
AcDbPolyline
 90
3
 70
0
 10
1077.486525
 20
1734.485212
 30
0.0
 10
309.814725
 20
1734.391462
 30
0.0
 10
498.908437
 20
1397.664900
 30
0.0
  0
SPLINE
  5
106
100
AcDbEntity
  8
Vektor
 62
7
100
AcDbSpline
 70
8
 71
3
 72
8
 73
4
 74
0
 40
0
 40
0
 40
0
 40
0
 40
1
 40
1
 40
1
 40
1
 10
838.775625
 20
1309.164900
 30
0.0
 10
904.997400
 20
1263.181950
 30
0.0
 10
948.369375
 20
1186.599225
 30
0.0
 10
948.369375
 20
1099.868025
 30
0.0
  0
SPLINE
  5
107
100
AcDbEntity
  8
Vektor
 62
7
100
AcDbSpline
 70
8
 71
3
 72
8
 73
4
 74
0
 40
0
 40
0
 40
0
 40
0
 40
1
 40
1
 40
1
 40
1
 10
948.369375
 20
1099.868025
 30
0.0
 10
948.369375
 20
959.233950
 30
0.0
 10
834.378450
 20
845.219625
 30
0.0
 10
693.744375
 20
845.219625
 30
0.0
  0
SPLINE
  5
108
100
AcDbEntity
  8
Vektor
 62
7
100
AcDbSpline
 70
8
 71
3
 72
8
 73
4
 74
0
 40
0
 40
0
 40
0
 40
0
 40
1
 40
1
 40
1
 40
1
 10
693.744375
 20
845.219625
 30
0.0
 10
553.110322
 20
845.219625
 30
0.0
 10
439.095975
 20
959.233950
 30
0.0
 10
439.095975
 20
1099.868025
 30
0.0
  0
SPLINE
  5
109
100
AcDbEntity
  8
Vektor
 62
7
100
AcDbSpline
 70
8
 71
3
 72
8
 73
4
 74
0
 40
0
 40
0
 40
0
 40
0
 40
1
 40
1
 40
1
 40
1
 10
439.095975
 20
1099.868025
 30
0.0
 10
439.095975
 20
1186.575825
 30
0.0
 10
482.444355
 20
1263.131025
 30
0.0
 10
548.642812
 20
1309.118025
 30
0.0
  0
LWPOLYLINE
  5
10a
100
AcDbEntity
  8
Vektor
 62
7
100
AcDbPolyline
 90
2
 70
0
 10
888.486525
 20
1397.711775
 30
0.0
 10
1077.486525
 20
1734.485212
 30
0.0
  0
SPLINE
  5
10b
100
AcDbEntity
  8
Vektor
 62
7
100
AcDbSpline
 70
8
 71
3
 72
8
 73
4
 74
0
 40
0
 40
0
 40
0
 40
0
 40
1
 40
1
 40
1
 40
1
 10
168.544117
 20
905.926725
 30
0.0
 10
296.843948
 20
910.702275
 30
0.0
 10
527.754855
 20
759.323775
 30
0.0
 10
692.788830
 20
761.116050
 30
0.0
  0
SPLINE
  5
10c
100
AcDbEntity
  8
Vektor
 62
7
100
AcDbSpline
 70
8
 71
3
 72
8
 73
4
 74
0
 40
0
 40
0
 40
0
 40
0
 40
1
 40
1
 40
1
 40
1
 10
692.788830
 20
761.116050
 30
0.0
 10
857.822775
 20
762.908325
 30
0.0
 10
1094.507175
 20
900.237075
 30
0.0
 10
1277.026500
 20
906.599625
 30
0.0
  0
SPLINE
  5
10d
100
AcDbEntity
  8
Vektor
 62
7
100
AcDbSpline
 70
8
 71
3
 72
8
 73
4
 74
0
 40
0
 40
0
 40
0
 40
0
 40
1
 40
1
 40
1
 40
1
 10
1277.026500
 20
906.599625
 30
0.0
 10
1459.545750
 20
912.962250
 30
0.0
 10
1895.567925
 20
707.215125
 30
0.0
 10
1895.567925
 20
707.215125
 30
0.0
  0
LWPOLYLINE
  5
10e
100
AcDbEntity
  8
Vektor
 62
7
100
AcDbPolyline
 90
3
 70
0
 10
548.642812
 20
1309.118025
 30
0.0
 10
693.744375
 20
1050.719625
 30
0.0
 10
838.775625
 20
1309.164900
 30
0.0
  0
SPLINE
  5
10f
100
AcDbEntity
  8
Vektor
 62
7
100
AcDbSpline
 70
8
 71
3
 72
8
 73
4
 74
0
 40
0
 40
0
 40
0
 40
0
 40
1
 40
1
 40
1
 40
1
 10
1812.337350
 20
676.282575
 30
0.0
 10
1812.337350
 20
676.282575
 30
0.0
 10
1474.728075
 20
851.722650
 30
0.0
 10
1283.646750
 20
853.029375
 30
0.0
  0
SPLINE
  5
110
100
AcDbEntity
  8
Vektor
 62
7
100
AcDbSpline
 70
8
 71
3
 72
8
 73
4
 74
0
 40
0
 40
0
 40
0
 40
0
 40
1
 40
1
 40
1
 40
1
 10
1283.646750
 20
853.029375
 30
0.0
 10
1092.565500
 20
854.336100
 30
0.0
 10
890.641125
 20
706.144725
 30
0.0
 10
695.469900
 20
707.890125
 30
0.0
  0
SPLINE
  5
111
100
AcDbEntity
  8
Vektor
 62
7
100
AcDbSpline
 70
8
 71
3
 72
8
 73
4
 74
0
 40
0
 40
0
 40
0
 40
0
 40
1
 40
1
 40
1
 40
1
 10
695.469900
 20
707.890125
 30
0.0
 10
500.298555
 20
709.635525
 30
0.0
 10
278.953605
 20
858.055875
 30
0.0
 10
155.881380
 20
851.756250
 30
0.0
  0
SPLINE
  5
112
100
AcDbEntity
  8
Vektor
 62
7
100
AcDbSpline
 70
8
 71
3
 72
8
 73
4
 74
0
 40
0
 40
0
 40
0
 40
0
 40
1
 40
1
 40
1
 40
1
 10
155.881380
 20
851.756250
 30
0.0
 10
32.809234
 20
845.456625
 30
0.0
 10
0.022501
 20
830.749200
 30
0.0
 10
0.022501
 20
830.749200
 30
0.0
  0
LWPOLYLINE
  5
113
100
AcDbEntity
  8
Vektor
 62
7
100
AcDbPolyline
 90
2
 70
0
 10
1895.567925
 20
707.215125
 30
0.0
 10
1812.337350
 20
676.282575
 30
0.0
  0
SPLINE
  5
114
100
AcDbEntity
  8
Vektor
 62
7
100
AcDbSpline
 70
8
 71
3
 72
8
 73
4
 74
0
 40
0
 40
0
 40
0
 40
0
 40
1
 40
1
 40
1
 40
1
 10
0.022501
 20
886.771575
 30
0.0
 10
0.022501
 20
886.771575
 30
0.0
 10
40.244281
 20
901.151175
 30
0.0
 10
168.544117
 20
905.926725
 30
0.0
  0
LWPOLYLINE
  5
115
100
AcDbEntity
  8
Vektor
 62
7
100
AcDbPolyline
 90
2
 70
0
 10
0.022501
 20
830.749200
 30
0.0
 10
0.022501
 20
886.771575
 30
0.0
  0
SPLINE
  5
116
100
AcDbEntity
  8
Vektor
 62
7
100
AcDbSpline
 70
8
 71
3
 72
8
 73
4
 74
0
 40
0
 40
0
 40
0
 40
0
 40
1
 40
1
 40
1
 40
1
 10
168.486810
 20
578.919525
 30
0.0
 10
288.270180
 20
578.772375
 30
0.0
 10
527.574105
 20
432.316575
 30
0.0
 10
692.551508
 20
434.108850
 30
0.0
  0
SPLINE
  5
117
100
AcDbEntity
  8
Vektor
 62
7
100
AcDbSpline
 70
8
 71
3
 72
8
 73
4
 74
0
 40
0
 40
0
 40
0
 40
0
 40
1
 40
1
 40
1
 40
1
 10
692.551508
 20
434.108850
 30
0.0
 10
857.528775
 20
435.901125
 30
0.0
 10
1156.262850
 20
582.372000
 30
0.0
 10
1273.764450
 20
576.076200
 30
0.0
  0
SPLINE
  5
118
100
AcDbEntity
  8
Vektor
 62
7
100
AcDbSpline
 70
8
 71
3
 72
8
 73
4
 74
0
 40
0
 40
0
 40
0
 40
0
 40
1
 40
1
 40
1
 40
1
 10
1273.764450
 20
576.076200
 30
0.0
 10
1391.266125
 20
569.780475
 30
0.0
 10
1452.499950
 20
542.734575
 30
0.0
 10
1452.499950
 20
542.734575
 30
0.0
  0
LWPOLYLINE
  5
119
100
AcDbEntity
  8
Vektor
 62
7
100
AcDbPolyline
 90
1
 70
1
 10
168.544117
 20
905.926725
 30
0.0
  0
SPLINE
  5
11a
100
AcDbEntity
  8
Vektor
 62
7
100
AcDbSpline
 70
8
 71
3
 72
8
 73
4
 74
0
 40
0
 40
0
 40
0
 40
0
 40
1
 40
1
 40
1
 40
1
 10
1364.808300
 20
510.132900
 30
0.0
 10
1364.808300
 20
510.132900
 30
0.0
 10
1305.318750
 20
520.987500
 30
0.0
 10
1278.264375
 20
518.989725
 30
0.0
  0
SPLINE
  5
11b
100
AcDbEntity
  8
Vektor
 62
7
100
AcDbSpline
 70
8
 71
3
 72
8
 73
4
 74
0
 40
0
 40
0
 40
0
 40
0
 40
1
 40
1
 40
1
 40
1
 10
1278.264375
 20
518.989725
 30
0.0
 10
1251.210075
 20
516.991950
 30
0.0
 10
1228.419750
 20
510.314550
 30
0.0
 10
1174.976250
 20
503.337750
 30
0.0
  0
SPLINE
  5
11c
100
AcDbEntity
  8
Vektor
 62
7
100
AcDbSpline
 70
8
 71
3
 72
8
 73
4
 74
0
 40
0
 40
0
 40
0
 40
0
 40
1
 40
1
 40
1
 40
1
 10
1174.976250
 20
503.337750
 30
0.0
 10
1110.159525
 20
494.876175
 30
0.0
 10
847.845600
 20
381.646725
 30
0.0
 10
695.231580
 20
380.882925
 30
0.0
  0
SPLINE
  5
11d
100
AcDbEntity
  8
Vektor
 62
7
100
AcDbSpline
 70
8
 71
3
 72
8
 73
4
 74
0
 40
0
 40
0
 40
0
 40
0
 40
1
 40
1
 40
1
 40
1
 10
695.231580
 20
380.882925
 30
0.0
 10
500.216235
 20
374.515125
 30
0.0
 10
278.858325
 20
531.048675
 30
0.0
 10
155.828423
 20
524.749050
 30
0.0
  0
SPLINE
  5
11e
100
AcDbEntity
  8
Vektor
 62
7
100
AcDbSpline
 70
8
 71
3
 72
8
 73
4
 74
0
 40
0
 40
0
 40
0
 40
0
 40
1
 40
1
 40
1
 40
1
 10
155.828423
 20
524.749050
 30
0.0
 10
32.798442
 20
518.449425
 30
0.0
 10
-0.112795
 20
503.742000
 30
0.0
 10
-0.112795
 20
503.742000
 30
0.0
  0
LWPOLYLINE
  5
11f
100
AcDbEntity
  8
Vektor
 62
7
100
AcDbPolyline
 90
2
 70
0
 10
1452.499950
 20
542.734575
 30
0.0
 10
1364.808300
 20
510.132900
 30
0.0
  0
SPLINE
  5
120
100
AcDbEntity
  8
Vektor
 62
7
100
AcDbSpline
 70
8
 71
3
 72
8
 73
4
 74
0
 40
0
 40
0
 40
0
 40
0
 40
1
 40
1
 40
1
 40
1
 10
0.023038
 20
559.764375
 30
0.0
 10
0.023038
 20
559.764375
 30
0.0
 10
48.703370
 20
579.066675
 30
0.0
 10
168.486810
 20
578.919525
 30
0.0
  0
LWPOLYLINE
  5
121
100
AcDbEntity
  8
Vektor
 62
7
100
AcDbPolyline
 90
2
 70
0
 10
-0.112795
 20
503.742000
 30
0.0
 10
0.023038
 20
559.764375
 30
0.0
  0
SPLINE
  5
122
100
AcDbEntity
  8
Vektor
 62
7
100
AcDbSpline
 70
8
 71
3
 72
8
 73
4
 74
0
 40
0
 40
0
 40
0
 40
0
 40
1
 40
1
 40
1
 40
1
 10
168.508403
 20
686.515500
 30
0.0
 10
296.780618
 20
691.291050
 30
0.0
 10
482.449822
 20
536.396325
 30
0.0
 10
692.640188
 20
541.704825
 30
0.0
  0
SPLINE
  5
123
100
AcDbEntity
  8
Vektor
 62
7
100
AcDbSpline
 70
8
 71
3
 72
8
 73
4
 74
0
 40
0
 40
0
 40
0
 40
0
 40
1
 40
1
 40
1
 40
1
 10
692.640188
 20
541.704825
 30
0.0
 10
902.830500
 20
547.013325
 30
0.0
 10
1099.214850
 20
687.155025
 30
0.0
 10
1288.756125
 20
681.562500
 30
0.0
  0
SPLINE
  5
124
100
AcDbEntity
  8
Vektor
 62
7
100
AcDbSpline
 70
8
 71
3
 72
8
 73
4
 74
0
 40
0
 40
0
 40
0
 40
0
 40
1
 40
1
 40
1
 40
1
 10
1288.756125
 20
681.562500
 30
0.0
 10
1478.297325
 20
675.969975
 30
0.0
 10
1603.079400
 20
598.640175
 30
0.0
 10
1603.079400
 20
598.640175
 30
0.0
  0
LWPOLYLINE
  5
125
100
AcDbEntity
  8
Vektor
 62
7
100
AcDbPolyline
 90
1
 70
1
 10
168.486810
 20
578.919525
 30
0.0
  0
SPLINE
  5
126
100
AcDbEntity
  8
Vektor
 62
7
100
AcDbSpline
 70
8
 71
3
 72
8
 73
4
 74
0
 40
0
 40
0
 40
0
 40
0
 40
1
 40
1
 40
1
 40
1
 10
1529.393475
 20
571.248975
 30
0.0
 10
1529.393475
 20
571.248975
 30
0.0
 10
1432.043625
 20
625.278975
 30
0.0
 10
1280.546400
 20
625.882500
 30
0.0
  0
SPLINE
  5
127
100
AcDbEntity
  8
Vektor
 62
7
100
AcDbSpline
 70
8
 71
3
 72
8
 73
4
 74
0
 40
0
 40
0
 40
0
 40
0
 40
1
 40
1
 40
1
 40
1
 10
1280.546400
 20
625.882500
 30
0.0
 10
1129.049250
 20
626.485950
 30
0.0
 10
889.743675
 20
490.952925
 30
0.0
 10
695.320605
 20
488.478900
 30
0.0
  0
SPLINE
  5
128
100
AcDbEntity
  8
Vektor
 62
7
100
AcDbSpline
 70
8
 71
3
 72
8
 73
4
 74
0
 40
0
 40
0
 40
0
 40
0
 40
1
 40
1
 40
1
 40
1
 10
695.320605
 20
488.478900
 30
0.0
 10
500.897430
 20
486.004875
 30
0.0
 10
254.179725
 20
628.799250
 30
0.0
 10
155.848395
 20
628.828800
 30
0.0
  0
SPLINE
  5
129
100
AcDbEntity
  8
Vektor
 62
7
100
AcDbSpline
 70
8
 71
3
 72
8
 73
4
 74
0
 40
0
 40
0
 40
0
 40
0
 40
1
 40
1
 40
1
 40
1
 10
155.848395
 20
628.828800
 30
0.0
 10
57.517050
 20
628.858050
 30
0.0
 10
-0.112795
 20
611.337975
 30
0.0
 10
-0.112795
 20
611.337975
 30
0.0
  0
LWPOLYLINE
  5
12a
100
AcDbEntity
  8
Vektor
 62
7
100
AcDbPolyline
 90
2
 70
0
 10
1603.079400
 20
598.640175
 30
0.0
 10
1529.393475
 20
571.248975
 30
0.0
  0
SPLINE
  5
12b
100
AcDbEntity
  8
Vektor
 62
7
100
AcDbSpline
 70
8
 71
3
 72
8
 73
4
 74
0
 40
0
 40
0
 40
0
 40
0
 40
1
 40
1
 40
1
 40
1
 10
0.023055
 20
667.133250
 30
0.0
 10
0.023055
 20
667.133250
 30
0.0
 10
40.236102
 20
681.739950
 30
0.0
 10
168.508402
 20
686.515500
 30
0.0
  0
LWPOLYLINE
  5
12c
100
AcDbEntity
  8
Vektor
 62
7
100
AcDbPolyline
 90
2
 70
0
 10
-0.112795
 20
611.337975
 30
0.0
 10
0.023055
 20
667.133250
 30
0.0
  0
SPLINE
  5
12d
100
AcDbEntity
  8
Vektor
 62
7
100
AcDbSpline
 70
8
 71
3
 72
8
 73
4
 74
0
 40
0
 40
0
 40
0
 40
0
 40
1
 40
1
 40
1
 40
1
 10
163.461862
 20
799.034100
 30
0.0
 10
277.630035
 20
794.667525
 30
0.0
 10
529.009447
 20
655.244175
 30
0.0
 10
689.797140
 20
657.036450
 30
0.0
  0
SPLINE
  5
12e
100
AcDbEntity
  8
Vektor
 62
7
100
AcDbSpline
 70
8
 71
3
 72
8
 73
4
 74
0
 40
0
 40
0
 40
0
 40
0
 40
1
 40
1
 40
1
 40
1
 10
689.797140
 20
657.036450
 30
0.0
 10
850.584825
 20
658.828725
 30
0.0
 10
1092.200175
 20
784.905450
 30
0.0
 10
1274.003400
 20
796.894050
 30
0.0
  0
SPLINE
  5
12f
100
AcDbEntity
  8
Vektor
 62
7
100
AcDbSpline
 70
8
 71
3
 72
8
 73
4
 74
0
 40
0
 40
0
 40
0
 40
0
 40
1
 40
1
 40
1
 40
1
 10
1274.003400
 20
796.894050
 30
0.0
 10
1455.806625
 20
808.882650
 30
0.0
 10
1738.551600
 20
649.205550
 30
0.0
 10
1738.551600
 20
649.205550
 30
0.0
  0
LWPOLYLINE
  5
130
100
AcDbEntity
  8
Vektor
 62
7
100
AcDbPolyline
 90
1
 70
1
 10
168.508402
 20
686.515500
 30
0.0
  0
SPLINE
  5
131
100
AcDbEntity
  8
Vektor
 62
7
100
AcDbSpline
 70
8
 71
3
 72
8
 73
4
 74
0
 40
0
 40
0
 40
0
 40
0
 40
1
 40
1
 40
1
 40
1
 10
1667.233725
 20
622.698900
 30
0.0
 10
1667.233725
 20
622.698900
 30
0.0
 10
1473.106725
 20
744.126825
 30
0.0
 10
1282.742025
 20
741.917325
 30
0.0
  0
SPLINE
  5
132
100
AcDbEntity
  8
Vektor
 62
7
100
AcDbSpline
 70
8
 71
3
 72
8
 73
4
 74
0
 40
0
 40
0
 40
0
 40
0
 40
1
 40
1
 40
1
 40
1
 10
1282.742025
 20
741.917325
 30
0.0
 10
1092.377250
 20
739.707825
 30
0.0
 10
886.932525
 20
604.878075
 30
0.0
 10
691.771793
 20
600.997500
 30
0.0
  0
SPLINE
  5
133
100
AcDbEntity
  8
Vektor
 62
7
100
AcDbSpline
 70
8
 71
3
 72
8
 73
4
 74
0
 40
0
 40
0
 40
0
 40
0
 40
1
 40
1
 40
1
 40
1
 10
691.771793
 20
600.997500
 30
0.0
 10
496.610933
 20
597.117000
 30
0.0
 10
278.102820
 20
746.943825
 30
0.0
 10
155.037285
 20
740.644200
 30
0.0
  0
SPLINE
  5
134
100
AcDbEntity
  8
Vektor
 62
7
100
AcDbSpline
 70
8
 71
3
 72
8
 73
4
 74
0
 40
0
 40
0
 40
0
 40
0
 40
1
 40
1
 40
1
 40
1
 10
155.037285
 20
740.644200
 30
0.0
 10
31.971676
 20
734.344575
 30
0.0
 10
-0.949092
 20
719.637150
 30
0.0
 10
-0.949092
 20
719.637150
 30
0.0
  0
LWPOLYLINE
  5
135
100
AcDbEntity
  8
Vektor
 62
7
100
AcDbPolyline
 90
2
 70
0
 10
1738.551600
 20
649.205550
 30
0.0
 10
1667.233725
 20
622.698900
 30
0.0
  0
SPLINE
  5
136
100
AcDbEntity
  8
Vektor
 62
7
100
AcDbSpline
 70
8
 71
3
 72
8
 73
4
 74
0
 40
0
 40
0
 40
0
 40
0
 40
1
 40
1
 40
1
 40
1
 10
-0.813220
 20
776.113650
 30
0.0
 10
-0.813220
 20
776.113650
 30
0.0
 10
49.293678
 20
803.400675
 30
0.0
 10
163.461863
 20
799.034100
 30
0.0
  0
LWPOLYLINE
  5
137
100
AcDbEntity
  8
Vektor
 62
7
100
AcDbPolyline
 90
2
 70
0
 10
-0.949092
 20
719.637150
 30
0.0
 10
-0.813220
 20
776.113650
 30
0.0
  0
LWPOLYLINE
  5
138
100
AcDbEntity
  8
Vektor
 62
7
100
AcDbPolyline
 90
1
 70
1
 10
163.461863
 20
799.034100
 30
0.0
  0
ENDSEC
  0
SECTION
  2
OBJECTS
  0
DICTIONARY
  5
C
330
0
100
AcDbDictionary
  3
ACAD_GROUP
350
D
  3
ACAD_MLINESTYLE
350
17
  0
DICTIONARY
  5
D
330
C
100
AcDbDictionary
  0
DICTIONARY
  5
1A
330
C
100
AcDbDictionary
  0
DICTIONARY
  5
17
330
C
100
AcDbDictionary
  3
STANDARD
350
18
  0
DICTIONARY
  5
19
330
C
100
AcDbDictionary
  0
ENDSEC
  0
EOF
